<?xml version="1.0" encoding="iso-8859-1"?>
<!-- Generator: Adobe Illustrator 19.0.0, SVG Export Plug-In . SVG Version: 6.00 Build 0)  -->
<svg version="1.1" id="Layer_1" xmlns="http://www.w3.org/2000/svg" xmlns:xlink="http://www.w3.org/1999/xlink" x="0px" y="0px"
	 viewBox="0 0 504.343 504.343" style="enable-background:new 0 0 504.343 504.343;" xml:space="preserve">
<g transform="translate(1 1)">
	<path style="fill:#AAB1BA;" d="M89.275,396.676c28.16,0,51.2,23.04,51.2,51.2c0,28.16-23.04,51.2-51.2,51.2s-51.2-23.04-51.2-51.2
		c0-14.507,5.973-28.16,16.213-37.547C63.675,401.796,75.622,396.676,89.275,396.676"/>
	<circle style="fill:#ECF4F7;" cx="89.275" cy="447.876" r="8.533"/>
	<path style="fill:#000103;" d="M496.315,10.969c5.12,8.533,2.56,17.92-5.973,23.893l-68.267,34.987l0,0
		c-2.56,0.853-5.12,2.56-8.533,2.56h-17.067h-358.4H21.009c-9.387,0-17.067-7.68-17.067-17.067s7.68-17.067,17.067-17.067h388.267
		l64-30.72C483.515,2.436,492.049,3.29,496.315,10.969z M396.475,72.41l-17.067,392.533c0,18.773-15.36,34.133-34.133,34.133h-256
		c28.16,0,51.2-23.04,51.2-51.2c0-28.16-23.04-51.2-51.2-51.2c-13.653,0-25.6,5.12-34.987,13.653l-0.853-0.853L38.075,72.41H396.475
		z"/>
</g>
<path style="fill:#f2f6fe;" d="M346.275,504.343H158.542c-2.56,0-4.267-1.707-4.267-4.267c0-2.56,1.707-4.267,4.267-4.267h187.733
	c16.213,0,29.867-13.653,29.867-29.867L393.209,73.41c0-0.853,0-0.853,0-1.707l0,0l0,0c0-0.853,0.853-0.853,0.853-1.707l0,0l0,0
	c0.853-0.853,0.853-0.853,1.707-0.853c0,0,0.853,0,1.707,0h17.067c1.707,0,4.267-0.853,5.973-1.707h0.853l68.267-34.987
	c5.973-3.413,8.533-11.093,4.267-17.92c-3.413-5.973-9.387-6.827-17.92-2.56l-64,30.72c-0.853,0-0.853,0-1.707,0H22.009
	c-6.827,0-12.8,5.973-12.8,12.8s5.973,12.8,12.8,12.8h17.067l0,0h324.267c2.56,0,4.267,1.707,4.267,4.267
	c0,2.56-1.707,4.267-4.267,4.267h-320l12.8,294.4l0,0c0,2.56-1.707,4.267-4.267,4.267s-4.267-1.707-4.267-4.267l-12.8-294.4h-12.8
	c-11.947,0-21.333-9.387-21.333-21.333s9.387-21.333,21.333-21.333h386.56l63.147-30.72c12.8-5.973,23.04-4.267,29.013,5.973
	c5.973,11.093,2.56,23.04-7.68,29.867l-68.267,34.987c0,0,0,0-0.853,0c-3.413,1.707-6.827,2.56-10.24,2.56h-12.8l-17.067,388.267
	C384.675,487.276,367.609,504.343,346.275,504.343z M90.275,504.343c-30.72,0-55.467-24.747-55.467-55.467
	s24.747-55.467,55.467-55.467s55.467,24.747,55.467,55.467S120.995,504.343,90.275,504.343z M90.275,401.943
	c-25.6,0-46.933,21.333-46.933,46.933s21.333,46.933,46.933,46.933s46.933-21.333,46.933-46.933S115.875,401.943,90.275,401.943z
	 M90.275,461.676c-6.827,0-12.8-5.973-12.8-12.8s5.973-12.8,12.8-12.8s12.8,5.973,12.8,12.8S97.102,461.676,90.275,461.676z
	 M90.275,444.61c-2.56,0-4.267,1.707-4.267,4.267c0,2.56,1.707,4.267,4.267,4.267s4.267-1.707,4.267-4.267
	C94.542,446.316,92.835,444.61,90.275,444.61z M260.942,359.276c-0.853,0-2.56,0-3.413-0.853l-25.6-25.6
	c0,0-0.853-0.853-0.853-1.707l0,0l0,0c0-0.853,0-0.853,0-1.707l0,0l0,0l0,0l0,0l0,0l0,0l0,0l0,0l0,0c0-0.853,0-0.853,0-1.707l0,0
	l0,0c0-0.853,0.853-0.853,0.853-1.707l25.6-25.6c1.707-1.707,4.267-1.707,5.973,0c1.707,1.707,1.707,4.267,0,5.973l-17.92,17.92
	h75.093c4.267,0,10.24-0.853,11.947-4.267c1.707-3.413,0.853-8.533-2.56-15.36l-42.667-73.387c-0.853-1.707-0.853-4.267,1.707-5.973
	c1.707-0.853,4.267-0.853,5.973,1.707l42.667,73.387c5.12,9.387,5.973,17.92,2.56,23.893c-3.413,5.973-9.387,8.533-19.627,8.533
	h-75.093l17.92,17.92c1.707,1.707,1.707,4.267,0,5.973C262.648,358.423,261.795,359.276,260.942,359.276z M201.209,333.676h-85.333
	c-11.947,0-17.067-4.267-19.627-8.533c-3.413-5.973-2.56-14.507,3.413-23.893l36.693-64l-24.747,6.827
	c-2.56,0.853-4.267-0.853-5.12-2.56c-0.853-2.56,0.853-4.267,2.56-5.12l34.987-10.24l0,0l0,0c0.853,0,1.707,0,2.56,0l0,0l0,0l0,0
	l0,0c0.853,0.853,1.707,1.707,1.707,2.56l10.24,34.987c0.853,2.56-0.853,4.267-2.56,5.12c-2.56,0.853-4.267-0.853-5.12-2.56
	l-6.827-25.6l-36.693,64.853c-3.413,5.973-5.12,11.947-3.413,15.36c1.707,3.413,7.68,4.267,11.947,4.267h85.333
	c2.56,0,4.267,1.707,4.267,4.267S203.769,333.676,201.209,333.676z M162.809,204.823c-0.853,0-1.707,0-1.707-0.853
	c-1.707-0.853-2.56-3.413-1.707-5.973l38.4-67.413c0,0,5.12-11.093,20.48-11.093c14.507,0,20.48,10.24,20.48,11.093l33.28,58.88
	l6.827-24.747c0.853-2.56,2.56-3.413,5.12-2.56c2.56,0.853,3.413,2.56,2.56,5.12l-9.387,34.987l0,0c0,0.853,0,0.853-0.853,1.707l0,0
	l0,0c0,0.853-0.853,0.853-1.707,0.853c-0.853,0-0.853,0.853-1.707,0.853c-0.853,0-0.853,0-1.707,0l0,0l0,0l0,0l-34.987-9.387
	c-2.56-0.853-3.413-2.56-3.413-5.12c0.853-2.56,2.56-3.413,5.12-3.413l24.747,6.827l-33.28-58.88c0,0-3.413-5.973-13.653-5.973
	c-10.24,0-12.8,5.973-13.653,5.973l-38.4,67.413C165.369,203.969,163.662,204.823,162.809,204.823z"/>
<g>
</g>
<g>
</g>
<g>
</g>
<g>
</g>
<g>
</g>
<g>
</g>
<g>
</g>
<g>
</g>
<g>
</g>
<g>
</g>
<g>
</g>
<g>
</g>
<g>
</g>
<g>
</g>
<g>
</g>
</svg>
